<svg width="198" height="31" viewBox="0 0 198 31" fill="none" xmlns="http://www.w3.org/2000/svg"><path d="M2.071 23.188a2.948 2.948 0 015.105-2.947 9.579 9.579 0 018.278-14.358 2.943 2.943 0 000-5.883A15.462 15.462 0 002.072 23.188z" fill="#F27730"/><path d="M26.382 4.526A15.354 15.354 0 0015.454 0a2.943 2.943 0 010 5.883 9.575 9.575 0 018.291 14.358 2.948 2.948 0 005.105 2.947 15.466 15.466 0 00-2.457-18.662h-.011z" fill="#37AE83"/><path d="M26.29 24.658a2.943 2.943 0 01-2.552-4.417 9.571 9.571 0 01-16.584 0 2.947 2.947 0 10-5.105 2.947 15.457 15.457 0 0026.769 0 2.939 2.939 0 01-2.527 1.47zm23.111-14.18a5.855 5.855 0 00-5.47.172 5.546 5.546 0 00-2.081 2.115 6.055 6.055 0 000 5.886 5.634 5.634 0 002.093 2.12 5.709 5.709 0 002.917.776 6.152 6.152 0 002.476-.543 7.102 7.102 0 002.188-1.503l1.947 2.166a10.177 10.177 0 01-3.154 2.189 8.882 8.882 0 01-3.647.802 9.02 9.02 0 01-4.558-1.182 8.664 8.664 0 01-3.252-3.216 8.78 8.78 0 01-1.182-4.497 8.576 8.576 0 011.207-4.482 8.672 8.672 0 013.282-3.177 9.545 9.545 0 018.281-.445 8.897 8.897 0 013.03 2.046l-1.922 2.414a6.499 6.499 0 00-2.154-1.64zm6.976-3.326h3.3v14.267h7.44v2.98h-10.74V7.152z" fill="#0D2F66"/><path fill-rule="evenodd" clip-rule="evenodd" d="M87.065 15.748a8.607 8.607 0 00-4.521-7.659 9.99 9.99 0 00-9.335 0 8.607 8.607 0 00-4.522 7.659 8.636 8.636 0 001.207 4.497 8.77 8.77 0 003.315 3.216 9.804 9.804 0 009.335 0 8.774 8.774 0 003.314-3.216 8.64 8.64 0 001.207-4.497zM72.863 18.73a5.902 5.902 0 012.13-8.067 5.797 5.797 0 012.93-.795 5.619 5.619 0 012.882.777 5.73 5.73 0 012.107 2.119c.522.908.79 1.94.777 2.987a5.89 5.89 0 01-.777 2.98 5.79 5.79 0 01-2.108 2.144 5.55 5.55 0 01-2.88.787 5.658 5.658 0 01-2.917-.787 5.951 5.951 0 01-2.144-2.145z" fill="#0D2F66"/><path d="M94.41 20.507a4.193 4.193 0 003.102 1.156 4.07 4.07 0 003.067-1.156c.746-.77 1.119-1.838 1.119-3.202V7.152h3.318v10.153a8.004 8.004 0 01-.911 3.906 6.174 6.174 0 01-2.6 2.553c-1.234.617-2.6.92-3.978.886a8.639 8.639 0 01-4.011-.886 6.14 6.14 0 01-2.622-2.553 8 8 0 01-.912-3.906V7.152h3.3v10.153c-.022 1.362.354 2.43 1.127 3.202z" fill="#0D2F66"/><path fill-rule="evenodd" clip-rule="evenodd" d="M124.04 11.306a8.058 8.058 0 00-3.201-3.056 9.656 9.656 0 00-4.642-1.098h-7.169v17.221h7.059a9.806 9.806 0 004.704-1.094 8.211 8.211 0 003.238-3.067 8.507 8.507 0 001.171-4.446 8.647 8.647 0 00-1.16-4.46zm-2.932 7.44a5.154 5.154 0 01-1.983 2.02 5.62 5.62 0 01-2.844.726h-3.942V10.06h3.843a5.807 5.807 0 012.895.729 5.235 5.235 0 012.031 2.046c.497.91.748 1.933.73 2.969a5.989 5.989 0 01-.73 2.943z" fill="#0D2F66"/><path d="M136.288 10.332a8.215 8.215 0 00-2.465-.445 3.428 3.428 0 00-1.87.445 1.39 1.39 0 00-.682 1.233c-.012.45.164.884.485 1.2.348.338.757.605 1.207.787.648.26 1.311.484 1.984.671.985.277 1.95.623 2.887 1.036a5.104 5.104 0 011.893 1.517 4.21 4.21 0 01.788 2.663 4.558 4.558 0 01-.857 2.753 5.324 5.324 0 01-2.341 1.787 8.87 8.87 0 01-3.413.617c-1.35 0-2.687-.255-3.942-.752a11.19 11.19 0 01-3.351-2.009l1.378-2.808a10.085 10.085 0 002.917 1.896 7.8 7.8 0 003.03.69 3.846 3.846 0 002.166-.53 1.744 1.744 0 00.307-2.662 3.583 3.583 0 00-1.218-.776c-.486-.197-1.16-.419-2.02-.664a23.89 23.89 0 01-2.859-1.01 4.965 4.965 0 01-1.896-1.492 4.106 4.106 0 01-.788-2.622 4.397 4.397 0 01.802-2.623 5.158 5.158 0 012.265-1.736 8.69 8.69 0 013.387-.616 11.46 11.46 0 013.311.492 11.17 11.17 0 012.917 1.332l-1.331 2.88a12.453 12.453 0 00-2.691-1.254zM147.8 20.507a4.193 4.193 0 003.103 1.156 4.07 4.07 0 003.067-1.156c.746-.77 1.119-1.838 1.119-3.202V7.152h3.3v10.153a7.994 7.994 0 01-.912 3.906 6.177 6.177 0 01-2.599 2.553 8.43 8.43 0 01-3.979.886 8.64 8.64 0 01-4.011-.886 6.146 6.146 0 01-2.622-2.553 8.004 8.004 0 01-.911-3.906V7.152h3.3v10.153c-.01 1.362.372 2.43 1.145 3.202zm14.629-13.355h3.3v17.247h-3.3V7.152zm5.907 0h14.065v2.917h-5.368V24.4h-3.325V10.084h-5.372V7.152zm16.683 0h12.617v2.881h-9.335v4.263h8.387v2.882h-8.387v4.34h9.63v2.88h-12.912V7.153z" fill="#0D2F66"/></svg>